<svg xmlns="http://www.w3.org/2000/svg" viewBox="0 0 175 120">
  <g stroke="#D1D5DB" stroke-width="0.85" fill="none">
    <path d="M22,12  C86,12  86,12  150,12"/>
    <path d="M22,12  C86,12  86,36  150,36"/>
    <path d="M22,12  C86,12  86,60  150,60"/>
    <path d="M22,12  C86,12  86,84  150,84"/>
    <path d="M22,12  C86,12  86,108 150,108"/>
    <path d="M22,36  C86,36  86,12  150,12"/>
    <path d="M22,36  C86,36  86,36  150,36"/>
    <path d="M22,36  C86,36  86,60  150,60"/>
    <path d="M22,36  C86,36  86,84  150,84"/>
    <path d="M22,36  C86,36  86,108 150,108"/>
    <path d="M22,60  C86,60  86,12  150,12"/>
    <path d="M22,60  C86,60  86,36  150,36"/>
    <path d="M22,60  C86,60  86,60  150,60"/>
    <path d="M22,60  C86,60  86,84  150,84"/>
    <path d="M22,60  C86,60  86,108 150,108"/>
    <path d="M22,84  C86,84  86,12  150,12"/>
    <path d="M22,84  C86,84  86,36  150,36"/>
    <path d="M22,84  C86,84  86,60  150,60"/>
    <path d="M22,84  C86,84  86,84  150,84"/>
    <path d="M22,84  C86,84  86,108 150,108"/>
    <path d="M22,108 C86,108 86,12  150,12"/>
    <path d="M22,108 C86,108 86,36  150,36"/>
    <path d="M22,108 C86,108 86,60  150,60"/>
    <path d="M22,108 C86,108 86,84  150,84"/>
    <path d="M22,108 C86,108 86,108 150,108"/>
  </g>
  <path d="M22,12 C86,12 86,84 150,84"  stroke="#EC5A2C" stroke-width="8" opacity="0.18" fill="none"/>
  <path d="M22,60 C86,60 86,36 150,36"  stroke="#EC5A2C" stroke-width="8" opacity="0.18" fill="none"/>
  <path d="M22,12 C86,12 86,84 150,84"  stroke="#EC5A2C" stroke-width="2.2" fill="none"/>
  <path d="M22,60 C86,60 86,36 150,36"  stroke="#EC5A2C" stroke-width="2.2" fill="none"/>
  <g fill="#F3F4F6" stroke="#9CA3AF" stroke-width="1.3">
    <circle cx="22"  cy="36"  r="4.5"/>
    <circle cx="22"  cy="84"  r="4.5"/>
    <circle cx="22"  cy="108" r="4.5"/>
    <circle cx="150" cy="12"  r="4.5"/>
    <circle cx="150" cy="60"  r="4.5"/>
    <circle cx="150" cy="108" r="4.5"/>
  </g>
  <circle cx="22"  cy="12"  r="11" fill="#EC5A2C" opacity="0.15"/>
  <circle cx="22"  cy="12"  r="6"  fill="#EC5A2C"/>
  <circle cx="22"  cy="60"  r="11" fill="#EC5A2C" opacity="0.15"/>
  <circle cx="22"  cy="60"  r="6"  fill="#EC5A2C"/>
  <circle cx="150" cy="84"  r="11" fill="#EC5A2C" opacity="0.15"/>
  <circle cx="150" cy="84"  r="6"  fill="#EC5A2C"/>
  <circle cx="150" cy="36"  r="11" fill="#EC5A2C" opacity="0.15"/>
  <circle cx="150" cy="36"  r="6"  fill="#EC5A2C"/>
</svg>
